<svg width="79" height="79" viewBox="0 0 79 79" fill="none" xmlns="http://www.w3.org/2000/svg">
<path fill-rule="evenodd" clip-rule="evenodd" d="M39.5 0C17.6852 0 0 17.6852 0 39.5C0 61.3148 17.6852 79 39.5 79C61.3148 79 79 61.3148 79 39.5C79 17.6852 61.3148 0 39.5 0ZM43.0909 53.8636C43.0909 54.816 42.7126 55.7294 42.0392 56.4028C41.3657 57.0762 40.4524 57.4545 39.5 57.4545C38.5476 57.4545 37.6343 57.0762 36.9608 56.4028C36.2874 55.7294 35.9091 54.816 35.9091 53.8636V43.0909H25.1364C24.184 43.0909 23.2706 42.7126 22.5972 42.0392C21.9238 41.3657 21.5455 40.4524 21.5455 39.5C21.5455 38.5476 21.9238 37.6343 22.5972 36.9608C23.2706 36.2874 24.184 35.9091 25.1364 35.9091H35.9091V25.1364C35.9091 24.184 36.2874 23.2706 36.9608 22.5972C37.6343 21.9238 38.5476 21.5455 39.5 21.5455C40.4524 21.5455 41.3657 21.9238 42.0392 22.5972C42.7126 23.2706 43.0909 24.184 43.0909 25.1364V35.9091H53.8636C54.816 35.9091 55.7294 36.2874 56.4028 36.9608C57.0762 37.6343 57.4545 38.5476 57.4545 39.5C57.4545 40.4524 57.0762 41.3657 56.4028 42.0392C55.7294 42.7126 54.816 43.0909 53.8636 43.0909H43.0909V53.8636Z" fill="black"/>
</svg>
